<svg xmlns="http://www.w3.org/2000/svg" xmlns:xlink="http://www.w3.org/1999/xlink" viewBox="0 0 469.75 255.9"><defs><style>      .cls-1 {        fill: #005dba;      }      .cls-2 {        letter-spacing: -.02em;      }      .cls-3 {        letter-spacing: 0em;      }      .cls-4, .cls-5 {        fill: #fff;      }      .cls-6 {        font-family: Montserrat-Bold, Montserrat;        font-size: 51.56px;        font-weight: 700;      }      .cls-7, .cls-8, .cls-9 {        fill: none;      }      .cls-10 {        fill: url(#Degradado_sin_nombre_4);      }      .cls-11 {        fill: #00041a;      }      .cls-12 {        letter-spacing: -.01em;      }      .cls-13 {        letter-spacing: -.05em;      }      .cls-14 {        letter-spacing: 0em;      }      .cls-15 {        fill: url(#Degradado_sin_nombre_2);      }      .cls-16 {        isolation: isolate;      }      .cls-8 {        stroke-width: 6.82px;      }      .cls-8, .cls-9, .cls-5, .cls-17 {        stroke: #00041a;      }      .cls-9 {        stroke-width: 7px;      }      .cls-18 {        mix-blend-mode: screen;      }      .cls-5 {        stroke-miterlimit: 10;      }      .cls-5, .cls-17 {        stroke-width: 3.15px;      }      .cls-19 {        letter-spacing: -.02em;      }      .cls-20 {        fill: #a7b4c2;      }      .cls-21 {        fill: url(#Degradado_sin_nombre_3);      }      .cls-17, .cls-22 {        fill: #499bd5;      }      .cls-23 {        fill: #00418b;      }      .cls-24 {        letter-spacing: 0em;      }      .cls-25 {        letter-spacing: -.02em;      }      .cls-26 {        font-family: Montserrat-Regular, Montserrat;        font-size: 21.6px;      }      .cls-27 {        fill: url(#Degradado_sin_nombre_2-2);      }      .cls-28 {        clip-path: url(#clippath);      }      .cls-29 {        opacity: .7;      }    </style><clipPath id="clippath"><circle class="cls-7" cx="109.75" cy="96.53" r="72"></circle></clipPath><radialGradient id="Degradado_sin_nombre_4" data-name="Degradado sin nombre 4" cx="-3005.15" cy="10270.85" fx="-3005.15" fy="10270.85" r="3.56" gradientTransform="translate(2326.62 7861.83) scale(.75 -.75)" gradientUnits="userSpaceOnUse"><stop offset="0" stop-color="#f3d600"></stop><stop offset=".42" stop-color="#f0d100"></stop><stop offset="1" stop-color="#ecbe08"></stop></radialGradient><radialGradient id="Degradado_sin_nombre_3" data-name="Degradado sin nombre 3" cx="-2990.32" cy="10269.35" fx="-2990.32" fy="10269.35" r="3.13" gradientTransform="translate(2326.62 7861.83) scale(.75 -.75)" gradientUnits="userSpaceOnUse"><stop offset="0" stop-color="#c2201e"></stop><stop offset=".36" stop-color="#b92420"></stop><stop offset=".88" stop-color="#a52220"></stop><stop offset="1" stop-color="#a22123"></stop></radialGradient><radialGradient id="Degradado_sin_nombre_2" data-name="Degradado sin nombre 2" cx="-2998.75" cy="10268.24" fx="-2998.75" fy="10268.24" r="3.72" gradientTransform="translate(2326.62 7861.83) scale(.75 -.75)" gradientUnits="userSpaceOnUse"><stop offset="0" stop-color="#1578ac"></stop><stop offset=".38" stop-color="#166199"></stop><stop offset="1" stop-color="#233f7e"></stop></radialGradient><radialGradient id="Degradado_sin_nombre_2-2" data-name="Degradado sin nombre 2" cx="-2998.15" cy="10279.98" fx="-2998.15" fy="10279.98" r="10.85" xlink:href="#Degradado_sin_nombre_2"></radialGradient></defs><g class="cls-16"><g id="Capa_2" data-name="Capa 2"><g id="Capa_2-2" data-name="Capa 2"><g><g class="cls-29"><path class="cls-4" d="M469.75,186.53H109.75c-49.71,0-90-40.29-90-90h0C19.75,46.83,60.05,6.53,109.75,6.53h360v180Z"></path></g><circle class="cls-1" cx="109.75" cy="96.53" r="72"></circle><g class="cls-28"><g><g><g><path class="cls-5" d="M74.51,220.77v18.13c-2.59,5.14-5.18,10.29-7.78,15.43h7.78s30.84,0,30.84,0v-33.55h-30.84Z"></path><rect class="cls-11" x="83.72" y="204.1" width="12.42" height="16.69" transform="translate(179.87 424.89) rotate(-180)"></rect></g><g><path class="cls-5" d="M144.99,220.77v18.13c2.59,5.14,5.18,10.29,7.78,15.43h-7.78s0,0,0,0h-30.84v-33.55h30.84Z"></path><rect class="cls-11" x="123.36" y="204.1" width="12.42" height="16.69"></rect></g></g><g><g><rect class="cls-11" x="45.58" y="165.01" width="12.42" height="27.06" transform="translate(-126.75 230.32) rotate(-90)"></rect><g><g><g><path class="cls-9" d="M32.02,180.63l-13.46-20.6c-.43-.66-.24-1.54.41-1.97l.76-.49c.66-.43,1.54-.24,1.97.41l13.46,20.6-3.13,2.05Z"></path><g><path class="cls-9" d="M27.36,173.75H2.75c-.78,0-1.42-.64-1.42-1.42v-.9c0-.78.64-1.42,1.42-1.42h24.61v3.74Z"></path><path class="cls-9" d="M26.03,180.31H1.42c-.78,0-1.42-.64-1.42-1.42v-.9c0-.78.64-1.42,1.42-1.42h24.61v3.74Z"></path><path class="cls-9" d="M28.42,186.86H3.82c-.78,0-1.42-.64-1.42-1.42v-.9c0-.78.64-1.42,1.42-1.42h24.61v3.74Z"></path></g></g><g><path class="cls-4" d="M32.02,180.63l-13.46-20.6c-.43-.66-.24-1.54.41-1.97l.76-.49c.66-.43,1.54-.24,1.97.41l13.46,20.6-3.13,2.05Z"></path><g><path class="cls-4" d="M27.36,173.75H2.75c-.78,0-1.42-.64-1.42-1.42v-.9c0-.78.64-1.42,1.42-1.42h24.61v3.74Z"></path><path class="cls-4" d="M26.03,180.31H1.42c-.78,0-1.42-.64-1.42-1.42v-.9c0-.78.64-1.42,1.42-1.42h24.61v3.74Z"></path><path class="cls-4" d="M28.42,186.86H3.82c-.78,0-1.42-.64-1.42-1.42v-.9c0-.78.64-1.42,1.42-1.42h24.61v3.74Z"></path></g></g></g><path class="cls-5" d="M38.46,167.58h-18.35c-1.19,0-2.29.37-3.2,1-1.44,1.01-2.39,2.69-2.39,4.58v10.55c0,1.9.95,3.57,2.4,4.58.91.63,2,1,3.19,1h18.35s0-21.71,0-21.71Z"></path></g></g><g><rect class="cls-11" x="161.51" y="165.01" width="12.42" height="27.06" transform="translate(-10.82 346.25) rotate(-90)"></rect><g><g><g><path class="cls-9" d="M187.49,180.63l13.46-20.6c.43-.66.24-1.54-.41-1.97l-.76-.49c-.66-.43-1.54-.24-1.97.41l-13.46,20.6,3.13,2.05Z"></path><g><path class="cls-9" d="M192.15,173.75h24.61c.78,0,1.42-.64,1.42-1.42v-.9c0-.78-.64-1.42-1.42-1.42h-24.61s0,3.74,0,3.74Z"></path><path class="cls-9" d="M193.48,180.31h24.61c.78,0,1.42-.64,1.42-1.42v-.9c0-.78-.64-1.42-1.42-1.42h-24.61s0,3.74,0,3.74Z"></path><path class="cls-9" d="M191.08,186.86h24.61c.78,0,1.42-.64,1.42-1.42v-.9c0-.78-.64-1.42-1.42-1.42h-24.61s0,3.74,0,3.74Z"></path></g></g><g><path class="cls-4" d="M187.49,180.63l13.46-20.6c.43-.66.24-1.54-.41-1.97l-.76-.49c-.66-.43-1.54-.24-1.97.41l-13.46,20.6,3.13,2.05Z"></path><g><path class="cls-4" d="M192.15,173.75h24.61c.78,0,1.42-.64,1.42-1.42v-.9c0-.78-.64-1.42-1.42-1.42h-24.61s0,3.74,0,3.74Z"></path><path class="cls-4" d="M193.48,180.31h24.61c.78,0,1.42-.64,1.42-1.42v-.9c0-.78-.64-1.42-1.42-1.42h-24.61s0,3.74,0,3.74Z"></path><path class="cls-4" d="M191.08,186.86h24.61c.78,0,1.42-.64,1.42-1.42v-.9c0-.78-.64-1.42-1.42-1.42h-24.61s0,3.74,0,3.74Z"></path></g></g></g><path class="cls-5" d="M181.05,167.58h18.35c1.19,0,2.29.37,3.2,1,1.44,1.01,2.39,2.69,2.39,4.58v10.55c0,1.9-.95,3.57-2.4,4.58-.91.63-2,1-3.19,1h-18.35s0-21.71,0-21.71Z"></path></g></g></g><g><g><rect class="cls-11" x="108.17" y="17.52" width="3.15" height="27.21"></rect><circle class="cls-17" cx="109.75" cy="10.61" r="9.03"></circle></g><g><g><path class="cls-5" d="M178.26,60.92v86.36c0,7.4-5.01,13.85-12.18,15.68l-3.16.81c-2.58.66-4.45,2.89-4.65,5.54l-1.53,20.46c-.63,8.45-7.67,14.98-16.14,14.98h-61.7c-8.47,0-15.51-6.53-16.14-14.98l-1.53-20.47c-.2-2.65-2.07-4.88-4.65-5.54l-3.16-.81c-7.17-1.83-12.18-8.29-12.18-15.68V60.92c0-8.94,7.25-16.19,16.19-16.19h104.64c8.94,0,16.19,7.25,16.19,16.19Z"></path><path class="cls-5" d="M41.24,98.53v45.47c-8.91-3.32-15.28-12.25-15.28-22.74s6.37-19.41,15.28-22.74Z"></path><path class="cls-5" d="M193.55,121.27c0,10.49-6.37,19.42-15.28,22.74v-45.48c8.91,3.32,15.28,12.25,15.28,22.74Z"></path></g><rect class="cls-17" x="91.69" y="44.74" width="36.14" height="17.96"></rect><path class="cls-11" d="M167.74,79.75v54.39c0,11.45-9.28,20.74-20.73,20.74h-74.52c-11.45,0-20.74-9.29-20.74-20.74v-54.39c0-11.45,9.29-20.74,20.74-20.74h74.52c11.45,0,20.73,9.29,20.73,20.74Z"></path><g><g><path class="cls-4" d="M83.45,189.61c-2.43,0-3.3-1.06-3.3-2.05v-.47l-3.7.63s-.09.01-.13.01c-.18,0-.36-.06-.51-.19-.18-.15-.28-.37-.28-.6v-17.41c0-.44.35-.79.79-.79h18.47c.44,0,.79.35.79.79v14.61s0,.07,0,.11v2.82c0,.38-.28.71-.66.78l-5.54.93-.49.09-3.56.6c-.55.09-1.14.14-1.86.14Z"></path><path class="cls-11" d="M94.78,169.53v14.61h0v2.93l-5.54.93-.5.09-3.55.6c-.5.09-1.05.13-1.73.13-1.55,0-2.51-.48-2.51-1.26v-1.36c-.24.01-.49.04-.73.08l-3.89.66v-17.41h18.47M94.78,167.95h-18.47c-.87,0-1.58.71-1.58,1.58v17.41c0,.46.2.9.56,1.2.29.24.65.37,1.02.37.09,0,.18,0,.27-.02l2.82-.48c.23,1.18,1.37,2.39,4.05,2.39.77,0,1.41-.05,2-.15l3.55-.6.52-.1,5.52-.93c.76-.13,1.31-.78,1.31-1.55v-2.78s0-.1,0-.15v-14.61c0-.87-.71-1.58-1.58-1.58h0Z"></path></g><g><g><path class="cls-10" d="M80.1,185.66c.53-.09,1.09-.1,1.62-.1,1.21,0,1.94.26,1.94.59v-2.69c0-.33-.74-.59-1.94-.59-.53,0-1.1.01-1.62.1l-3.17.53v2.7l3.17-.54h0Z"></path><polygon class="cls-21" points="94.15 183.83 88.63 184.78 88.63 187.47 94.15 186.55 94.15 183.83"></polygon><path class="cls-20" d="M83.67,183.45v2.05h-.23c-1.54,0-2.35-.53-1.62-.99.21-.12.5-.25.83-.37.28-.1.51-.2.69-.31.22-.13.32-.26.32-.39Z"></path><path class="cls-15" d="M88.63,184.78l-3.55.61c-.56.1-1.13.12-1.63.12-1.14,0-1.88-.29-1.89-.62v2.68c0,.34.73.64,1.89.64.5,0,1.07-.02,1.63-.12l3.55-.6v-2.7h0Z"></path><polygon class="cls-4" points="87.24 186.04 87.31 186.25 87.53 186.25 87.35 186.38 87.42 186.6 87.24 186.47 87.06 186.6 87.12 186.38 86.94 186.25 87.17 186.25 87.24 186.04"></polygon><polygon class="cls-4" points="86.39 186.18 86.45 186.39 86.68 186.39 86.49 186.52 86.57 186.74 86.39 186.61 86.2 186.74 86.27 186.52 86.09 186.39 86.31 186.39 86.39 186.18"></polygon><polygon class="cls-4" points="85.53 186.33 85.6 186.55 85.82 186.55 85.64 186.68 85.71 186.9 85.53 186.76 85.35 186.9 85.41 186.68 85.23 186.55 85.46 186.55 85.53 186.33"></polygon><polygon class="cls-4" points="84.67 186.46 84.74 186.68 84.97 186.68 84.78 186.82 84.86 187.03 84.67 186.9 84.49 187.03 84.56 186.82 84.38 186.68 84.6 186.68 84.67 186.46"></polygon><polygon class="cls-4" points="83.82 186.52 83.89 186.74 84.11 186.74 83.93 186.87 84 187.08 83.82 186.95 83.64 187.08 83.71 186.87 83.53 186.74 83.75 186.74 83.82 186.52"></polygon><polygon class="cls-4" points="82.96 186.5 83.04 186.71 83.26 186.71 83.08 186.84 83.15 187.06 82.96 186.93 82.78 187.06 82.85 186.84 82.67 186.71 82.9 186.71 82.96 186.5"></polygon><polygon class="cls-4" points="82.11 186.34 82.18 186.56 82.41 186.56 82.23 186.69 82.29 186.9 82.11 186.77 81.93 186.9 82 186.69 81.82 186.56 82.04 186.56 82.11 186.34"></polygon><polygon class="cls-4" points="88.1 185.89 88.16 186.11 88.39 186.11 88.21 186.24 88.27 186.46 88.1 186.33 87.91 186.46 87.98 186.24 87.8 186.11 88.02 186.11 88.1 185.89"></polygon><path class="cls-27" d="M76.93,170.15v13.12s3.82-.91,5.67-.59c0,0,1.18.2,1.41.68,0,.72,0,1.24,0,1.91.4.07,6.55-1.05,10.14-1.65v-13.46h-17.22Z"></path></g><g><path class="cls-4" d="M81.01,177.66c.22.18.48.28.77.29.36,0,.53-.14.54-.39,0-.21-.12-.34-.36-.38-.11-.01-.23-.04-.37-.05-.23-.04-.42-.13-.53-.27-.12-.15-.19-.32-.19-.53,0-.25.08-.45.24-.6.15-.15.37-.23.66-.23.34,0,.64.1.88.29l-.23.35c-.2-.14-.43-.21-.68-.22-.12,0-.23.04-.32.1-.09.07-.13.17-.14.31,0,.08.03.15.1.22.06.07.16.12.29.14.07.01.18.03.31.04.26.04.45.13.57.29.12.15.18.33.18.53-.01.54-.34.82-.96.83-.4,0-.75-.13-1.05-.39l.28-.32h0Z"></path><path class="cls-4" d="M84.38,177.71h-1.04l-.21.63h-.44l.99-2.83h.35l.99,2.83h-.44l-.21-.63ZM84.27,177.33l-.39-1.24h0l-.39,1.24h.8Z"></path><path class="cls-4" d="M85.12,175.51h.42v2.83h-.42v-2.83Z"></path><path class="cls-4" d="M85.87,175.51h.39l.78,1.84.77-1.84h.39v2.83h-.42v-1.76h0l-.57,1.36h-.34l-.57-1.36h0v1.76h-.42v-2.83h0Z"></path><path class="cls-4" d="M88.6,175.51h1.75v.4h-1.34v.81h1.14v.38h-1.14v.83h1.34v.4h-1.75v-2.83h0Z"></path></g></g></g></g></g><g><path class="cls-22" d="M152.46,105.29v18.03c0,6.51-5.46,11.9-11.95,11.37-5.66-.46-10.12-5.21-10.12-11v-18.4c0-6.1,4.95-11.03,11.03-11.03,3.05,0,5.8,1.23,7.8,3.23,2,2,3.23,4.76,3.23,7.8Z"></path><path class="cls-22" d="M89.1,105.29v18.03c0,6.59-5.4,11.92-11.97,11.36-5.66-.48-10.09-5.22-10.09-11v-18.06c0-6.14,4.87-11.36,11.01-11.37,3.06,0,5.82,1.23,7.83,3.23,2,2,3.23,4.76,3.23,7.8Z"></path><path class="cls-22" d="M109.82,140.78c-2.4,0-4.77-.99-6.58-2.77-2.04-2.01-3.13-4.79-2.99-7.64.05-.99.88-1.75,1.88-1.7.99.05,1.75.89,1.7,1.88-.09,1.83.61,3.62,1.92,4.91,1.22,1.2,2.83,1.84,4.4,1.73,3.17-.21,5.68-3.24,5.49-6.63-.06-.99.7-1.84,1.69-1.89.99-.06,1.84.7,1.89,1.69.3,5.3-3.75,10.07-8.84,10.41-.19.01-.38.02-.57.02Z"></path></g><g class="cls-18"><image width="158" height="119" transform="translate(30.69 57.9)"></image></g></g></g><path class="cls-23" d="M109.75,24.53c39.76,0,72,32.24,72,72s-32.24,72-72,72-72-32.24-72-72S69.99,24.53,109.75,24.53M109.75,19.53c-42.46,0-77,34.54-77,77s34.54,77,77,77,77-34.54,77-77S152.21,19.53,109.75,19.53h0Z"></path><g><g><path class="cls-4" d="M178.26,79.54v-18.62c0-8.94-7.25-16.19-16.19-16.19H57.43c-8.94,0-16.19,7.25-16.19,16.19v21.59c15.61-5.51,39.23-11.86,68.51-12.46,29.04-.6,52.74,4.69,68.51,9.5Z"></path><path class="cls-11" d="M42.82,82.27v-21.35c0-8.06,6.56-14.61,14.61-14.61h104.64c8.06,0,14.61,6.56,14.61,14.61v18.6c1.05.02,2.1.03,3.15.04v-18.64c0-9.79-7.97-17.76-17.76-17.76H57.43c-9.79,0-17.76,7.97-17.76,17.76v21.82c1.05-.17,2.1-.32,3.15-.48Z"></path></g><g><rect class="cls-22" x="91.69" y="44.74" width="36.14" height="17.96"></rect><path class="cls-11" d="M129.4,64.27h-39.29v-21.11h39.29v21.11ZM93.26,61.12h32.99v-14.81h-32.99v14.81Z"></path></g><path class="cls-11" d="M167.72,79.36c-.21-11.27-9.39-20.35-20.71-20.35h-74.52c-11.45,0-20.74,9.29-20.74,20.74v1.34c38.4-4.57,77.28-2.53,115.97-1.72Z"></path></g><g><rect class="cls-11" x="108.17" y="17.52" width="3.15" height="27.21"></rect><circle class="cls-17" cx="109.75" cy="10.61" r="9.03"></circle><g class="cls-18"><image width="91" height="91" transform="translate(64.69 -35.1)"></image></g></g><g><g><g><path class="cls-8" d="M54.77,154.02l-.9-.43c-1.36-.65-1.94-2.28-1.29-3.64l4.09-8.61c.37-.77,1.29-1.1,2.06-.73l3.04,1.45c.77.37,1.1,1.29.73,2.06l-4.09,8.61c-.65,1.36-2.28,1.94-3.64,1.29Z"></path><path class="cls-8" d="M61.11,159.94l-.9-.43c-1.36-.65-1.94-2.28-1.29-3.64l5.22-10.98c.37-.77,1.29-1.1,2.06-.73l3.04,1.45c.77.37,1.1,1.29.73,2.06l-5.22,10.98c-.65,1.36-2.28,1.94-3.64,1.29Z"></path><path class="cls-8" d="M69.05,162.47l-.9-.43c-1.36-.65-1.94-2.28-1.29-3.64l4.74-9.97c.37-.77,1.29-1.1,2.06-.73l3.04,1.45c.77.37,1.1,1.29.73,2.06l-4.74,9.97c-.65,1.36-2.28,1.94-3.64,1.29Z"></path><path class="cls-8" d="M78.59,161.16l-.65-.31c-1.18-.56-1.69-1.98-1.12-3.16l.94-1.99c.33-.7,1.17-1,1.87-.66l2.4,1.14c.7.33,1,1.17.66,1.87l-.94,1.99c-.56,1.18-1.98,1.69-3.16,1.12Z"></path></g><g><path class="cls-4" d="M54.77,154.02l-.9-.43c-1.36-.65-1.94-2.28-1.29-3.64l4.09-8.61c.37-.77,1.29-1.1,2.06-.73l3.04,1.45c.77.37,1.1,1.29.73,2.06l-4.09,8.61c-.65,1.36-2.28,1.94-3.64,1.29Z"></path><path class="cls-4" d="M61.11,159.94l-.9-.43c-1.36-.65-1.94-2.28-1.29-3.64l5.22-10.98c.37-.77,1.29-1.1,2.06-.73l3.04,1.45c.77.37,1.1,1.29.73,2.06l-5.22,10.98c-.65,1.36-2.28,1.94-3.64,1.29Z"></path><path class="cls-4" d="M69.05,162.47l-.9-.43c-1.36-.65-1.94-2.28-1.29-3.64l4.74-9.97c.37-.77,1.29-1.1,2.06-.73l3.04,1.45c.77.37,1.1,1.29.73,2.06l-4.74,9.97c-.65,1.36-2.28,1.94-3.64,1.29Z"></path><path class="cls-4" d="M78.59,161.16l-.65-.31c-1.18-.56-1.69-1.98-1.12-3.16l.94-1.99c.33-.7,1.17-1,1.87-.66l2.4,1.14c.7.33,1,1.17.66,1.87l-.94,1.99c-.56,1.18-1.98,1.69-3.16,1.12Z"></path></g></g><g><g><path class="cls-8" d="M164.73,154.02l.9-.43c1.36-.65,1.94-2.28,1.29-3.64l-4.09-8.61c-.37-.77-1.29-1.1-2.06-.73l-3.04,1.45c-.77.37-1.1,1.29-.73,2.06l4.09,8.61c.65,1.36,2.28,1.94,3.64,1.29Z"></path><path class="cls-8" d="M158.39,159.94l.9-.43c1.36-.65,1.94-2.28,1.29-3.64l-5.22-10.98c-.37-.77-1.29-1.1-2.06-.73l-3.04,1.45c-.77.37-1.1,1.29-.73,2.06l5.22,10.98c.65,1.36,2.28,1.94,3.64,1.29Z"></path><path class="cls-8" d="M150.44,162.47l.9-.43c1.36-.65,1.94-2.28,1.29-3.64l-4.74-9.97c-.37-.77-1.29-1.1-2.06-.73l-3.04,1.45c-.77.37-1.1,1.29-.73,2.06l4.74,9.97c.65,1.36,2.28,1.94,3.64,1.29Z"></path><path class="cls-8" d="M140.91,161.16l.65-.31c1.18-.56,1.69-1.98,1.12-3.16l-.94-1.99c-.33-.7-1.17-1-1.87-.66l-2.4,1.14c-.7.33-1,1.17-.66,1.87l.94,1.99c.56,1.18,1.98,1.69,3.16,1.12Z"></path></g><g><path class="cls-4" d="M164.73,154.02l.9-.43c1.36-.65,1.94-2.28,1.29-3.64l-4.09-8.61c-.37-.77-1.29-1.1-2.06-.73l-3.04,1.45c-.77.37-1.1,1.29-.73,2.06l4.09,8.61c.65,1.36,2.28,1.94,3.64,1.29Z"></path><path class="cls-4" d="M158.39,159.94l.9-.43c1.36-.65,1.94-2.28,1.29-3.64l-5.22-10.98c-.37-.77-1.29-1.1-2.06-.73l-3.04,1.45c-.77.37-1.1,1.29-.73,2.06l5.22,10.98c.65,1.36,2.28,1.94,3.64,1.29Z"></path><path class="cls-4" d="M150.44,162.47l.9-.43c1.36-.65,1.94-2.28,1.29-3.64l-4.74-9.97c-.37-.77-1.29-1.1-2.06-.73l-3.04,1.45c-.77.37-1.1,1.29-.73,2.06l4.74,9.97c.65,1.36,2.28,1.94,3.64,1.29Z"></path><path class="cls-4" d="M140.91,161.16l.65-.31c1.18-.56,1.69-1.98,1.12-3.16l-.94-1.99c-.33-.7-1.17-1-1.87-.66l-2.4,1.14c-.7.33-1,1.17-.66,1.87l.94,1.99c.56,1.18,1.98,1.69,3.16,1.12Z"></path></g></g></g><text class="cls-23" transform="translate(191.41 74.84)"><tspan class="cls-6"><tspan x="0" y="0">¡Hola s</tspan><tspan class="cls-12" x="179.62" y="0">o</tspan><tspan class="cls-24" x="212.61" y="0">y</tspan></tspan><tspan class="cls-6"><tspan x="11.7" y="51.56">Saimi</tspan><tspan class="cls-2" x="161.52" y="51.56">t</tspan><tspan x="183.07" y="51.56">o!</tspan></tspan><tspan class="cls-26"><tspan x="22.51" y="77.48">¿Ne</tspan><tspan class="cls-3" x="65.37" y="77.48">c</tspan><tspan x="77.33" y="77.48">es</tspan><tspan class="cls-14" x="100.92" y="77.48">i</tspan><tspan class="cls-25" x="106.54" y="77.48">t</tspan><tspan x="114.87" y="77.48">as </tspan><tspan class="cls-19" x="143.82" y="77.48">a</tspan><tspan x="156.15" y="77.48">yud</tspan><tspan class="cls-13" x="197.02" y="77.48">a</tspan><tspan x="208.68" y="77.48">?</tspan></tspan></text></g></g></g></g></svg>